<?xml version="1.0" standalone="no"?>
<!DOCTYPE svg PUBLIC "-//W3C//DTD SVG 20010904//EN"
 "http://www.w3.org/TR/2001/REC-SVG-20010904/DTD/svg10.dtd">
<svg version="1.0" xmlns="http://www.w3.org/2000/svg"
 width="72.000000pt" height="72.000000pt" viewBox="0 0 72.000000 72.000000"
 preserveAspectRatio="xMidYMid meet">
<metadata>
Created by potrace 1.14, written by Peter Selinger 2001-2017
</metadata>
<g transform="translate(0.000000,72.000000) scale(0.100000,-0.100000)"
fill="#000000" stroke="none">
<path d="M263 578 c-45 -68 -87 -136 -95 -153 -7 -16 -16 -32 -19 -35 -4 -3
-17 -33 -28 -68 -26 -76 -21 -141 14 -204 47 -85 96 -108 225 -108 86 0 149
23 183 67 80 101 82 183 11 326 -28 55 -161 258 -177 268 -5 3 -8 10 -7 15 0
5 -5 10 -12 12 -7 1 -50 -53 -95 -120z"/>
</g>
</svg>
